<svg xmlns="http://www.w3.org/2000/svg" width="720" height="632" viewBox="0 0 720 632" fill="none" role="img" aria-labelledby="title desc">
<title id="title">Luca Garulli &#8212; ArcadeDB / Arcade Platform</title><desc id="desc">Luca Garulli, creator of ArcadeDB. A diagram of an application talking to Arcade Platform (process engine, AI orchestration, auth and tenancy), which routes into ArcadeDB's multi-model engine: Graph, Document, Vector, Time Series and Key-Value.</desc>
<defs><pattern id="grid" width="26" height="26" patternUnits="userSpaceOnUse"><path d="M26 0H0V26" stroke="#EAE8DC" stroke-width=".65" opacity=".8"/></pattern><marker id="arrow" markerWidth="7" markerHeight="7" refX="5.6" refY="3.5" orient="auto"><path d="M1 1l4.5 2.5L1 6" fill="none" stroke="#6B6B76" stroke-width="1.2"/></marker><marker id="arrow-orange" markerWidth="7" markerHeight="7" refX="5.6" refY="3.5" orient="auto"><path d="M1 1l4.5 2.5L1 6" fill="none" stroke="#E2650F" stroke-width="1.3"/></marker></defs>
<rect width="720" height="632" rx="16" fill="#FAF9F4"/><rect x=".5" y=".5" width="719" height="631" rx="15.5" stroke="#E3E1D6"/><path d="M18 20l10 10-10 10-10-10z" transform="translate(24 4)" fill="none" stroke="#E2650F" stroke-width="1.8"/><text x="64" y="42" fill="#6B6B76" font-family="ui-monospace, SFMono-Regular, Menlo, Consolas, monospace" font-size="15" font-weight="500" letter-spacing="1">LUCA GARULLI / ARCADEDB</text><path d="M28 65H692" stroke="#E3E1D6"/><text x="28" y="168" fill="#17171F" font-family="Arial, Helvetica, sans-serif" font-size="80" font-weight="750" letter-spacing="-3.6">Luca Garulli</text><path d="M32 198h36" stroke="#E2650F" stroke-width="4"/><text x="32" y="238" fill="#6B6B76" font-family="ui-monospace, SFMono-Regular, Menlo, Consolas, monospace" font-size="21" font-weight="400">ArcadeDB &#183; Arcade Platform</text><text x="32" y="272" fill="#6B6B76" font-family="ui-monospace, SFMono-Regular, Menlo, Consolas, monospace" font-size="13" font-weight="400" letter-spacing="1">GRAPH &#183; DOCUMENT &#183; VECTOR &#183; TIME SERIES &#183; KEY-VALUE</text><g transform="translate(85 300)"><rect width="550" height="302" rx="12" fill="url(#grid)"/><path d="M10 14h8m-4 -4v8" stroke="#6B6B76" stroke-width="1" opacity=".7"/><path d="M532 14h-8m4 -4v8" stroke="#6B6B76" stroke-width="1" opacity=".7"/><path d="M10 288h8m-4 4v-8" stroke="#6B6B76" stroke-width="1" opacity=".7"/><path d="M532 288h-8m4 4v-8" stroke="#6B6B76" stroke-width="1" opacity=".7"/><rect x="14" y="10" width="108" height="34" rx="8" fill="#FFFFFF" stroke="#E3E1D6"/><g transform="translate(24 17) scale(0.83)" fill="none" stroke="#6B6B76" stroke-width="1.6" stroke-linecap="round" stroke-linejoin="round"><path d="M5 3h9l5 5v13H5zM14 3v6h5M8 13h8m-8 4h6"/></g><text x="56" y="32" fill="#17171F" font-family="ui-monospace, SFMono-Regular, Menlo, Consolas, monospace" font-size="12" font-weight="500">YOUR APP</text><path d="M40 44V54" stroke="#6B6B76" stroke-width="1.4" marker-end="url(#arrow)"/><text x="149" y="49" fill="#6B6B76" text-anchor="middle" font-family="ui-monospace, SFMono-Regular, Menlo, Consolas, monospace" font-size="11" font-weight="500" letter-spacing="1.2">ARCADE PLATFORM</text><rect x="14" y="54" width="270" height="196" rx="14" fill="none" stroke="#7C5CFC" stroke-width="1.4" stroke-dasharray="3 6"/><path d="M149 66l15 15-15 15-15-15z" fill="none" stroke="#7C5CFC" stroke-width="1.6"/><rect x="32" y="102" width="224" height="28" rx="7" fill="#FFFFFF" stroke="#E3E1D6"/><circle cx="48" cy="116" r="3" fill="#7C5CFC"/><text x="60" y="120" fill="#17171F" font-family="ui-monospace, SFMono-Regular, Menlo, Consolas, monospace" font-size="12.5" font-weight="400">Process Engine</text><rect x="32" y="140" width="224" height="28" rx="7" fill="#FFFFFF" stroke="#E3E1D6"/><circle cx="48" cy="154" r="3" fill="#7C5CFC"/><text x="60" y="158" fill="#17171F" font-family="ui-monospace, SFMono-Regular, Menlo, Consolas, monospace" font-size="12.5" font-weight="400">AI Orchestration</text><rect x="32" y="178" width="224" height="28" rx="7" fill="#FFFFFF" stroke="#E3E1D6"/><circle cx="48" cy="192" r="3" fill="#7C5CFC"/><text x="60" y="196" fill="#17171F" font-family="ui-monospace, SFMono-Regular, Menlo, Consolas, monospace" font-size="12.5" font-weight="400">Auth &amp; Tenancy</text><path d="M284 152H300" stroke="#E2650F" stroke-width="1.6" marker-end="url(#arrow-orange)"/><rect x="300" y="110" width="120" height="86" rx="14" fill="#F1E9FF" stroke="#E2650F" stroke-width="1.6"/><path d="M346 134l14 -12 14 12v6l-14 10-14 -10z" fill="#E2650F" opacity=".9"/><path d="M346 140l14 10 14 -10" fill="none" stroke="#7C5CFC" stroke-width="2" opacity=".9"/><text x="330" y="180" fill="#17171F" font-family="Arial, Helvetica, sans-serif" font-size="16" font-weight="700" letter-spacing="-.3">ArcadeDB</text><path d="M420 153Q440 153 440 91.0Q440 29.0 452 29.0" fill="none" stroke="#7C5CFC" stroke-width="1.3" opacity=".8" marker-end="url(#arrow)"/><rect x="452" y="14" width="96" height="30" rx="7" fill="#FFFFFF" stroke="#7C5CFC" stroke-width="1.1"/><circle cx="466" cy="29.0" r="3.4" fill="#7C5CFC"/><text x="476" y="33.0" fill="#17171F" font-family="ui-monospace, SFMono-Regular, Menlo, Consolas, monospace" font-size="11.5" font-weight="400">Graph</text><path d="M420 153Q440 153 440 118.0Q440 83.0 452 83.0" fill="none" stroke="#E2650F" stroke-width="1.3" opacity=".8" marker-end="url(#arrow)"/><rect x="452" y="68" width="96" height="30" rx="7" fill="#FFFFFF" stroke="#E2650F" stroke-width="1.1"/><circle cx="466" cy="83.0" r="3.4" fill="#E2650F"/><text x="476" y="87.0" fill="#17171F" font-family="ui-monospace, SFMono-Regular, Menlo, Consolas, monospace" font-size="11.5" font-weight="400">Document</text><path d="M420 153Q440 153 440 145.0Q440 137.0 452 137.0" fill="none" stroke="#2563EB" stroke-width="1.3" opacity=".8" marker-end="url(#arrow)"/><rect x="452" y="122" width="96" height="30" rx="7" fill="#FFFFFF" stroke="#2563EB" stroke-width="1.1"/><circle cx="466" cy="137.0" r="3.4" fill="#2563EB"/><text x="476" y="141.0" fill="#17171F" font-family="ui-monospace, SFMono-Regular, Menlo, Consolas, monospace" font-size="11.5" font-weight="400">Vector</text><path d="M420 153Q440 153 440 172.0Q440 191.0 452 191.0" fill="none" stroke="#0E9166" stroke-width="1.3" opacity=".8" marker-end="url(#arrow)"/><rect x="452" y="176" width="96" height="30" rx="7" fill="#FFFFFF" stroke="#0E9166" stroke-width="1.1"/><circle cx="466" cy="191.0" r="3.4" fill="#0E9166"/><text x="476" y="195.0" fill="#17171F" font-family="ui-monospace, SFMono-Regular, Menlo, Consolas, monospace" font-size="11.5" font-weight="400">Time Series</text><path d="M420 153Q440 153 440 199.0Q440 245.0 452 245.0" fill="none" stroke="#B8860B" stroke-width="1.3" opacity=".8" marker-end="url(#arrow)"/><rect x="452" y="230" width="96" height="30" rx="7" fill="#FFFFFF" stroke="#B8860B" stroke-width="1.1"/><circle cx="466" cy="245.0" r="3.4" fill="#B8860B"/><text x="476" y="249.0" fill="#17171F" font-family="ui-monospace, SFMono-Regular, Menlo, Consolas, monospace" font-size="11.5" font-weight="400">Key-Value</text><style>@media(prefers-reduced-motion:reduce){.signal{display:none}}</style><circle class="signal" r="3" fill="#7C5CFC"><animateMotion dur="9s" repeatCount="indefinite" path="M40 44V60Q40 152 149 152Q220 152 284 152H300V150Q346 150 380 150H420Q440 150 440 91.0Q440 29.0 452 29.0"/></circle><text x="14" y="296" fill="#6B6B76" font-family="ui-monospace, SFMono-Regular, Menlo, Consolas, monospace" font-size="10" letter-spacing="1.1">EMBEDDED &#183; SELF-HOSTED &#183; CLOUD</text></g>
</svg>